# xmcd CD database file
# Copyright (C) 1993-1998 Ti Kan
#
# Track frame offsets:
#  150
#  13655
#  26942
#  41580
#  53415
#  67802
#  80690
#  93837
#  104337
#  117595
#  134535
#
# Disc length: 2004 seconds
#
# Revision: 1
# Processed by: cddbd v1.4b41PL1 Copyright (c) Steve Scherf et al.
# Submitted via: CDWizzard Release:4.35
#
DISCID=8e07d20b
DTITLE=Lynn Anderson - Latest And Greatest
DYEAR=1900
DGENRE=
TTITLE0=Top Of The World
TTITLE1=How Can I Unlove You
TTITLE2=Rose Garden
TTITLE3=You're My Man
TTITLE4=Cry
TTITLE5=Big Girls Don't Cry
TTITLE6=Keep Me In Mind
TTITLE7=Rocky Top
TTITLE8=Top Alone
TTITLE9=Give It Up
TTITLE10=What Fool's Say
EXTD=
EXTT0=
EXTT1=
EXTT2=
EXTT3=
EXTT4=
EXTT5=
EXTT6=
EXTT7=
EXTT8=
EXTT9=
EXTT10=
PLAYORDER=
